<?xml version="1.0" encoding="UTF-8"?>
<svg xmlns="http://www.w3.org/2000/svg" xmlns:xlink="http://www.w3.org/1999/xlink" width="500px" height="137px" viewBox="0 0 501 137" version="1.1">
<g id="surface1">
<path style=" stroke:none;fill-rule:nonzero;fill:rgb(95.294118%,80.392157%,7.843137%);fill-opacity:1;" d="M 43.097656 -0.0859375 C 43.265625 -0.0859375 43.433594 -0.0898438 43.609375 -0.0898438 C 44.152344 -0.09375 44.699219 -0.0976562 45.246094 -0.09375 C 45.433594 -0.09375 45.621094 -0.09375 45.8125 -0.09375 C 50.042969 -0.0742188 53.519531 0.542969 57.382812 2.277344 C 58.644531 2.835938 59.871094 3.253906 61.214844 3.558594 C 66.214844 4.707031 66.214844 4.707031 67.636719 6.523438 C 67.800781 6.6875 67.964844 6.855469 68.136719 7.027344 C 68.5 7.777344 68.675781 8.445312 68.636719 9.285156 C 66.035156 13.648438 58.21875 15.8125 53.628906 17 C 51.214844 17.589844 48.78125 18.085938 46.34375 18.566406 C 47.957031 20.046875 49.507812 21.246094 51.539062 22.082031 C 52.28125 22.394531 52.566406 22.53125 53.074219 23.179688 C 53.644531 23.882812 54.046875 24.101562 54.84375 24.511719 C 57.429688 25.867188 59.550781 27.703125 61.5625 29.796875 C 62.261719 30.519531 62.960938 31.136719 63.785156 31.710938 C 64.953125 32.570312 65.667969 33.660156 66.46875 34.851562 C 67.042969 35.695312 67.574219 36.355469 68.402344 36.980469 C 69.566406 37.898438 70.160156 39.136719 70.832031 40.433594 C 71.265625 41.261719 71.691406 41.996094 72.308594 42.699219 C 72.882812 43.394531 73.105469 43.84375 73.347656 44.695312 C 73.71875 45.820312 74.199219 46.644531 74.898438 47.59375 C 75.792969 48.882812 76.1875 50.019531 76.507812 51.546875 C 76.835938 53.046875 77.34375 54.433594 77.90625 55.859375 C 79.019531 58.71875 80.007812 61.261719 79.878906 64.378906 C 79.910156 65.28125 80.105469 65.917969 80.40625 66.765625 C 81.054688 68.949219 81.046875 71.066406 81.015625 73.328125 C 81.003906 74.027344 81.003906 74.722656 81.003906 75.421875 C 81.003906 75.867188 81 76.316406 80.996094 76.765625 C 80.996094 76.972656 80.996094 77.175781 80.992188 77.390625 C 80.976562 78.542969 80.8125 79.449219 80.410156 80.542969 C 80.445312 81.351562 80.550781 82.125 80.660156 82.925781 C 80.660156 83.722656 80.585938 84.101562 80.324219 84.828125 C 79.773438 86.335938 79.613281 87.882812 79.410156 89.46875 C 79.320312 90.09375 79.234375 90.722656 79.148438 91.351562 C 79.105469 91.652344 79.066406 91.953125 79.023438 92.261719 C 78.660156 94.871094 78.1875 97.160156 77.074219 99.570312 C 76.378906 101.1875 75.992188 102.921875 75.539062 104.617188 C 75.09375 106.25 74.59375 107.757812 73.890625 109.296875 C 73.636719 109.929688 73.527344 110.5 73.429688 111.171875 C 73.207031 112.492188 72.566406 113.394531 71.828125 114.492188 C 71.003906 115.773438 70.550781 117.160156 70.105469 118.613281 C 69.609375 120.222656 69.191406 121.5625 67.988281 122.789062 C 66.398438 124.632812 65.570312 128.46875 65.667969 130.867188 C 65.703125 131.136719 65.738281 131.40625 65.773438 131.683594 C 65.988281 133.394531 65.558594 134.796875 64.628906 136.246094 C 63.859375 136.757812 63.105469 136.875 62.1875 136.949219 C 61.621094 136.988281 61.621094 136.988281 61.058594 137.113281 C 59.902344 137.261719 59.179688 137.09375 58.242188 136.410156 C 57.777344 136.046875 57.328125 135.675781 56.886719 135.289062 C 56.171875 134.664062 55.550781 134.175781 54.664062 133.828125 C 53.871094 133.492188 53.660156 133.386719 53.277344 132.65625 C 52.152344 130.914062 50.183594 130.136719 48.226562 129.707031 C 47.617188 129.480469 47.289062 129.25 46.785156 128.855469 C 45.765625 128.097656 44.773438 127.914062 43.539062 127.683594 C 41.253906 127.199219 39.109375 126.46875 36.933594 125.613281 C 36.5 125.445312 36.5 125.445312 36.058594 125.277344 C 33.136719 124.101562 30.667969 122.769531 28.527344 120.441406 C 27.289062 119.148438 26.097656 117.980469 24.578125 117.015625 C 23.414062 116.265625 22.542969 115.425781 21.683594 114.339844 C 21.488281 114.097656 21.292969 113.851562 21.09375 113.601562 C 20.910156 113.375 20.730469 113.148438 20.539062 112.910156 C 19.855469 112.082031 19.167969 111.28125 18.394531 110.527344 C 17.804688 109.921875 17.375 109.324219 16.933594 108.605469 C 16.542969 108.15625 16.191406 107.898438 15.695312 107.570312 C 14.742188 106.90625 14.132812 106.148438 13.480469 105.195312 C 13.375 105.054688 13.273438 104.910156 13.167969 104.761719 C 12.605469 103.957031 12.167969 103.167969 11.792969 102.261719 C 11.28125 101.0625 10.585938 100.101562 9.785156 99.082031 C 9.527344 98.746094 9.269531 98.410156 9.011719 98.074219 C 8.824219 97.832031 8.824219 97.832031 8.632812 97.585938 C 7.015625 95.464844 7.015625 95.464844 6.496094 94.34375 C 6.207031 93.722656 5.90625 93.175781 5.527344 92.597656 C 4.789062 91.3125 4.554688 89.882812 4.242188 88.449219 C 3.824219 86.371094 3.824219 86.371094 3.117188 84.386719 C 2.578125 83.148438 2.382812 81.871094 2.140625 80.550781 C 1.953125 79.597656 1.761719 78.800781 1.355469 77.914062 C 0.90625 76.789062 0.871094 75.800781 0.84375 74.601562 C 0.832031 74.179688 0.820312 73.761719 0.804688 73.34375 C 0.800781 73.160156 0.796875 72.976562 0.789062 72.789062 C 0.765625 72.261719 0.765625 72.261719 0.625 71.765625 C 0.488281 71.199219 0.480469 70.714844 0.496094 70.136719 C 0.496094 69.921875 0.5 69.707031 0.503906 69.484375 C 0.511719 69.042969 0.523438 68.597656 0.53125 68.152344 C 0.550781 66.742188 0.367188 65.59375 0 64.234375 C -0.195312 62.074219 0.078125 59.894531 0.34375 57.75 C 0.460938 56.75 0.515625 55.859375 0.363281 54.859375 C 0.253906 53.964844 0.234375 53.691406 0.703125 52.957031 C 1.121094 52.234375 1.34375 51.636719 1.488281 50.808594 C 1.644531 50 1.847656 49.484375 2.332031 48.820312 C 3.054688 47.769531 3.308594 46.667969 3.617188 45.445312 C 4.148438 43.363281 4.878906 41.695312 6.277344 40.035156 C 7.710938 38.136719 8.34375 35.722656 9.101562 33.496094 C 9.632812 31.957031 10.246094 30.511719 10.953125 29.046875 C 11.324219 28.242188 11.585938 27.433594 11.84375 26.585938 C 12.023438 26.09375 12.023438 26.09375 12.539062 25.28125 C 13.519531 23.628906 13.503906 21.542969 13.613281 19.671875 C 13.917969 14.878906 13.917969 14.878906 15.171875 13.265625 C 15.566406 12.800781 15.566406 12.800781 15.761719 12.164062 C 16.089844 11.414062 16.4375 11.140625 17.097656 10.664062 C 17.777344 10.167969 18.390625 9.6875 19.007812 9.113281 C 20.101562 8.300781 21.261719 7.945312 22.546875 7.527344 C 22.746094 7.453125 22.945312 7.375 23.152344 7.296875 C 24.085938 6.953125 24.804688 6.742188 25.800781 6.820312 C 27.132812 6.886719 28.066406 6.074219 29.058594 5.269531 C 29.167969 5.144531 29.277344 5.015625 29.390625 4.886719 C 30.015625 4.332031 30.761719 4.109375 31.53125 3.828125 C 32.828125 3.335938 34.019531 2.78125 35.226562 2.085938 C 36.578125 1.328125 37.839844 0.9375 39.359375 0.652344 C 40.070312 0.53125 40.070312 0.53125 40.640625 0.246094 C 41.488281 -0.0546875 42.195312 -0.0742188 43.097656 -0.0859375 Z M 43.097656 -0.0859375 "/>
<path style=" stroke:none;fill-rule:nonzero;fill:rgb(29.019608%,36.862745%,33.72549%);fill-opacity:1;" d="M 26.300781 9.285156 C 27.664062 9.980469 28.636719 11.089844 29.691406 12.183594 C 30.296875 12.804688 30.296875 12.804688 30.972656 13.316406 C 31.53125 13.773438 31.839844 14.152344 32.21875 14.757812 C 32.847656 15.632812 33.46875 16.097656 34.398438 16.640625 C 35.722656 17.429688 36.5 18.324219 37.425781 19.546875 C 38.328125 20.679688 39.4375 21.621094 40.523438 22.574219 C 41.5625 23.507812 42.199219 24.347656 42.835938 25.59375 C 42.984375 25.855469 43.136719 26.121094 43.289062 26.390625 C 44.972656 29.53125 45.332031 32.722656 45.710938 36.226562 C 45.816406 37.132812 45.816406 37.132812 46.105469 37.960938 C 46.417969 39.183594 46.386719 40.320312 46.359375 41.574219 C 46.292969 45.097656 46.292969 45.097656 46.890625 48.550781 C 47.09375 49.429688 47.09375 49.429688 46.984375 50.042969 C 46.59375 50.433594 46.59375 50.433594 45.824219 50.683594 C 44.539062 50.683594 43.710938 50.269531 42.585938 49.679688 C 42.257812 49.511719 41.925781 49.347656 41.597656 49.179688 C 41.4375 49.097656 41.273438 49.011719 41.109375 48.925781 C 40.332031 48.558594 39.53125 48.269531 38.726562 47.980469 C 38.074219 47.675781 38.074219 47.675781 37.335938 47.105469 C 36.128906 46.21875 34.757812 45.714844 33.378906 45.152344 C 31.042969 44.199219 28.789062 43.234375 26.6875 41.816406 C 26.058594 41.40625 25.441406 41.117188 24.753906 40.820312 C 23.152344 40.03125 22.121094 38.773438 21.042969 37.386719 C 20.925781 37.242188 20.804688 37.09375 20.683594 36.945312 C 18.074219 33.644531 16.589844 29.089844 17.035156 24.839844 C 17.21875 23.71875 17.457031 22.609375 17.707031 21.5 C 17.800781 21.0625 17.800781 21.0625 17.894531 20.617188 C 18.429688 18.199219 19.191406 16.011719 20.710938 14.039062 C 21.144531 13.394531 21.460938 12.714844 21.792969 12.011719 C 22.34375 10.878906 22.808594 10.0625 23.796875 9.285156 C 24.757812 8.964844 25.316406 9.066406 26.300781 9.285156 Z M 26.300781 9.285156 "/>
<path style=" stroke:none;fill-rule:nonzero;fill:rgb(28.627451%,36.862745%,34.117647%);fill-opacity:1;" d="M 395.289062 59.378906 C 395.769531 59.375 396.246094 59.367188 396.726562 59.359375 C 397.414062 59.34375 398.105469 59.339844 398.792969 59.335938 C 399.007812 59.328125 399.222656 59.324219 399.445312 59.320312 C 400.003906 59.320312 400.503906 59.339844 401.050781 59.46875 C 401.515625 59.96875 401.515625 59.96875 401.800781 60.722656 C 401.863281 60.875 401.925781 61.027344 401.988281 61.183594 C 402.207031 61.734375 402.410156 62.289062 402.609375 62.84375 C 402.722656 63.15625 402.722656 63.15625 402.839844 63.472656 C 403.8125 66.175781 404.726562 68.902344 405.640625 71.625 C 405.871094 72.304688 406.101562 72.988281 406.332031 73.667969 C 406.402344 73.878906 406.472656 74.085938 406.542969 74.300781 C 406.800781 75.238281 406.800781 75.238281 407.3125 76.027344 C 407.460938 75.582031 407.609375 75.136719 407.757812 74.691406 C 407.890625 74.289062 408.023438 73.886719 408.160156 73.488281 C 408.527344 72.386719 408.890625 71.28125 409.253906 70.179688 C 409.984375 67.953125 410.734375 65.742188 411.570312 63.554688 C 411.910156 62.667969 412.226562 61.78125 412.511719 60.878906 C 412.824219 59.96875 412.824219 59.96875 413.324219 59.46875 C 414.074219 59.414062 414.800781 59.390625 415.546875 59.390625 C 415.769531 59.390625 415.988281 59.390625 416.214844 59.386719 C 416.683594 59.386719 417.148438 59.386719 417.617188 59.386719 C 418.332031 59.386719 419.046875 59.382812 419.761719 59.375 C 420.214844 59.375 420.667969 59.375 421.121094 59.375 C 421.335938 59.375 421.550781 59.371094 421.773438 59.367188 C 422.375 59.375 422.375 59.375 423.34375 59.46875 C 423.890625 60.285156 423.90625 60.425781 423.800781 61.347656 C 423.769531 61.640625 423.769531 61.640625 423.742188 61.9375 C 423.558594 62.609375 423.414062 62.824219 422.84375 63.230469 C 422.265625 63.417969 421.679688 63.585938 421.089844 63.734375 C 421.125 64.65625 421.164062 65.582031 421.199219 66.507812 C 421.210938 66.769531 421.21875 67.03125 421.230469 67.296875 C 421.242188 67.550781 421.25 67.808594 421.261719 68.070312 C 421.269531 68.300781 421.28125 68.535156 421.289062 68.773438 C 421.332031 69.523438 421.332031 69.523438 421.460938 70.34375 C 421.601562 71.335938 421.671875 72.328125 421.726562 73.328125 C 421.734375 73.519531 421.746094 73.714844 421.757812 73.910156 C 421.78125 74.316406 421.800781 74.722656 421.824219 75.128906 C 421.859375 75.742188 421.890625 76.355469 421.925781 76.96875 C 421.949219 77.367188 421.96875 77.761719 421.992188 78.160156 C 422 78.339844 422.011719 78.519531 422.023438 78.703125 C 422.089844 79.988281 422.101562 81.265625 422.09375 82.550781 C 422.269531 82.585938 422.449219 82.617188 422.632812 82.652344 C 422.863281 82.695312 423.09375 82.742188 423.328125 82.785156 C 423.671875 82.851562 423.671875 82.851562 424.023438 82.917969 C 424.597656 83.054688 424.597656 83.054688 424.847656 83.304688 C 424.878906 83.800781 424.890625 84.296875 424.894531 84.792969 C 424.898438 85.066406 424.902344 85.335938 424.90625 85.617188 C 424.847656 86.316406 424.847656 86.316406 424.347656 86.816406 C 423.875 86.882812 423.875 86.882812 423.289062 86.886719 C 423.070312 86.886719 422.855469 86.890625 422.628906 86.894531 C 422.394531 86.894531 422.15625 86.890625 421.914062 86.890625 C 421.671875 86.894531 421.429688 86.894531 421.179688 86.894531 C 420.667969 86.898438 420.152344 86.898438 419.640625 86.894531 C 418.855469 86.894531 418.070312 86.902344 417.285156 86.90625 C 416.785156 86.90625 416.289062 86.910156 415.792969 86.90625 C 415.554688 86.910156 415.320312 86.914062 415.078125 86.914062 C 414.859375 86.914062 414.640625 86.910156 414.414062 86.910156 C 414.222656 86.910156 414.027344 86.910156 413.832031 86.910156 C 413.1875 86.792969 412.96875 86.574219 412.574219 86.0625 C 412.464844 85.46875 412.464844 85.46875 412.464844 84.808594 C 412.460938 84.59375 412.453125 84.375 412.449219 84.152344 C 412.574219 83.554688 412.574219 83.554688 412.972656 83.132812 C 413.730469 82.71875 414.492188 82.511719 415.328125 82.300781 C 415.335938 81.640625 415.339844 80.984375 415.34375 80.324219 C 415.347656 80.050781 415.347656 80.050781 415.351562 79.773438 C 415.355469 78.773438 415.3125 77.804688 415.203125 76.8125 C 415.054688 75.449219 415.050781 74.101562 415.0625 72.734375 C 415.0625 72.496094 415.066406 72.253906 415.066406 72.007812 C 415.070312 71.421875 415.074219 70.839844 415.078125 70.257812 C 414.914062 70.257812 414.746094 70.257812 414.578125 70.257812 C 414.535156 70.421875 414.496094 70.585938 414.453125 70.757812 C 413.988281 72.558594 413.367188 74.246094 412.652344 75.964844 C 411.664062 78.378906 410.765625 80.808594 409.945312 83.28125 C 409.832031 83.621094 409.832031 83.621094 409.714844 83.96875 C 409.617188 84.269531 409.617188 84.269531 409.519531 84.574219 C 409.316406 85.058594 409.316406 85.058594 408.816406 85.5625 C 408.300781 85.621094 408.300781 85.621094 407.671875 85.609375 C 407.445312 85.609375 407.222656 85.609375 406.992188 85.605469 C 406.640625 85.601562 406.640625 85.601562 406.28125 85.59375 C 405.925781 85.589844 405.925781 85.589844 405.5625 85.585938 C 404.976562 85.582031 404.390625 85.574219 403.804688 85.5625 C 402.722656 82.820312 401.691406 80.066406 400.722656 77.28125 C 399.933594 75.015625 399.117188 72.761719 398.296875 70.507812 C 397.980469 71.140625 398 71.601562 397.984375 72.308594 C 397.972656 72.710938 397.972656 72.710938 397.957031 73.117188 C 397.949219 73.40625 397.941406 73.691406 397.933594 73.988281 C 397.84375 76.859375 397.625 79.699219 397.292969 82.550781 C 397.523438 82.570312 397.523438 82.570312 397.757812 82.589844 C 397.960938 82.605469 398.164062 82.625 398.375 82.644531 C 398.574219 82.664062 398.773438 82.679688 398.980469 82.699219 C 399.546875 82.800781 399.546875 82.800781 400.300781 83.304688 C 400.390625 83.9375 400.390625 83.9375 400.378906 84.683594 C 400.375 84.929688 400.375 85.175781 400.375 85.429688 C 400.300781 86.0625 400.300781 86.0625 399.796875 86.566406 C 397.515625 86.925781 395.132812 86.839844 392.832031 86.847656 C 392.5625 86.847656 392.296875 86.851562 392.019531 86.851562 C 391.769531 86.851562 391.519531 86.851562 391.261719 86.851562 C 391.035156 86.851562 390.808594 86.847656 390.578125 86.847656 C 390.027344 86.816406 390.027344 86.816406 389.527344 86.566406 C 389.527344 85.488281 389.527344 84.414062 389.527344 83.304688 C 391.1875 82.582031 391.1875 82.582031 392.03125 82.300781 C 392.117188 81.203125 392.199219 80.105469 392.28125 79.007812 C 392.320312 78.546875 392.320312 78.546875 392.355469 78.082031 C 392.492188 76.21875 392.542969 74.382812 392.527344 72.515625 C 392.535156 71.660156 392.644531 70.851562 392.785156 70.003906 C 392.886719 68.925781 392.96875 67.84375 393.050781 66.757812 C 393.074219 66.46875 393.09375 66.175781 393.121094 65.875 C 393.175781 65.160156 393.230469 64.449219 393.285156 63.734375 C 392.375 63.566406 391.464844 63.402344 390.53125 63.230469 C 390.257812 61.898438 390.320312 61 390.78125 59.71875 C 391.515625 58.980469 394.242188 59.386719 395.289062 59.378906 Z M 395.289062 59.378906 "/>
<path style=" stroke:none;fill-rule:nonzero;fill:rgb(28.627451%,36.862745%,33.72549%);fill-opacity:1;" d="M 43.097656 -0.0859375 C 43.265625 -0.0859375 43.433594 -0.0898438 43.609375 -0.0898438 C 44.152344 -0.09375 44.699219 -0.0976562 45.246094 -0.09375 C 45.433594 -0.09375 45.621094 -0.09375 45.8125 -0.09375 C 50.042969 -0.0742188 53.519531 0.542969 57.382812 2.277344 C 58.644531 2.835938 59.871094 3.253906 61.214844 3.558594 C 66.214844 4.707031 66.214844 4.707031 67.636719 6.523438 C 67.882812 6.773438 67.882812 6.773438 68.136719 7.027344 C 68.5 7.777344 68.675781 8.445312 68.636719 9.285156 C 66.03125 13.65625 58.210938 15.808594 53.617188 17.003906 C 46.128906 18.847656 46.128906 18.847656 42.695312 17.5 C 42.492188 17.425781 42.289062 17.351562 42.078125 17.273438 C 41.140625 16.917969 40.253906 16.539062 39.390625 16.023438 C 38.640625 15.59375 38.050781 15.371094 37.214844 15.179688 C 34.882812 14.570312 33.699219 13.78125 32.125 11.925781 C 31.601562 11.335938 31.070312 10.839844 30.46875 10.335938 C 29.734375 9.71875 29.230469 9.152344 28.808594 8.28125 C 29.265625 7.820312 30.003906 7.972656 30.621094 7.957031 C 30.867188 7.953125 30.867188 7.953125 31.117188 7.945312 C 31.472656 7.933594 31.828125 7.925781 32.183594 7.917969 C 32.75 7.902344 33.316406 7.886719 33.878906 7.871094 C 35.078125 7.839844 36.28125 7.808594 37.480469 7.777344 C 38.867188 7.742188 40.253906 7.707031 41.640625 7.667969 C 42.195312 7.652344 42.75 7.640625 43.300781 7.625 C 43.644531 7.617188 43.988281 7.605469 44.332031 7.597656 C 44.632812 7.589844 44.929688 7.582031 45.234375 7.574219 C 46.117188 7.527344 46.972656 7.402344 47.84375 7.277344 C 48.1875 7.265625 48.53125 7.261719 48.871094 7.269531 C 49.054688 7.277344 49.234375 7.28125 49.417969 7.285156 C 49.703125 7.296875 49.703125 7.296875 49.988281 7.308594 C 50.1875 7.3125 50.386719 7.320312 50.589844 7.324219 C 51.214844 7.34375 51.839844 7.363281 52.464844 7.386719 C 52.890625 7.398438 53.316406 7.414062 53.742188 7.425781 C 54.785156 7.457031 55.824219 7.492188 56.863281 7.527344 C 56.863281 7.277344 56.863281 7.03125 56.863281 6.773438 C 56.726562 6.78125 56.585938 6.785156 56.445312 6.792969 C 54.753906 6.828125 53.085938 6.710938 51.398438 6.554688 C 51.058594 6.527344 51.058594 6.527344 50.710938 6.496094 C 50.492188 6.472656 50.273438 6.453125 50.046875 6.433594 C 49.851562 6.414062 49.65625 6.394531 49.457031 6.375 C 48.847656 6.273438 48.847656 6.273438 48.140625 6.015625 C 47.214844 5.730469 46.363281 5.703125 45.402344 5.714844 C 45.214844 5.714844 45.03125 5.714844 44.84375 5.714844 C 44.246094 5.714844 43.652344 5.71875 43.054688 5.722656 C 42.644531 5.726562 42.230469 5.730469 41.820312 5.730469 C 40.65625 5.738281 39.492188 5.753906 38.328125 5.769531 C 38.050781 5.773438 37.773438 5.777344 37.488281 5.78125 C 34.148438 5.835938 30.46875 6.011719 27.554688 7.777344 C 26.851562 7.574219 26.851562 7.574219 26.300781 7.277344 C 26.445312 7.167969 26.59375 7.0625 26.742188 6.953125 C 27.097656 6.679688 27.449219 6.402344 27.789062 6.109375 C 29.027344 5.074219 30.203125 4.453125 31.703125 3.878906 C 32.738281 3.4375 33.699219 2.898438 34.679688 2.351562 C 36.222656 1.503906 37.644531 0.941406 39.394531 0.636719 C 40.074219 0.53125 40.074219 0.53125 40.640625 0.246094 C 41.488281 -0.0546875 42.195312 -0.0742188 43.097656 -0.0859375 Z M 43.097656 -0.0859375 "/>
<path style=" stroke:none;fill-rule:nonzero;fill:rgb(28.627451%,36.862745%,34.117647%);fill-opacity:1;" d="M 474.445312 59.46875 C 480.695312 58.910156 480.695312 58.910156 482.269531 59.769531 C 483.09375 60.550781 483.558594 61.507812 484.007812 62.535156 C 484.304688 63.164062 484.71875 63.648438 485.171875 64.171875 C 486.5625 65.882812 487.820312 67.691406 489.101562 69.484375 C 489.726562 70.351562 490.355469 71.214844 490.984375 72.074219 C 491.746094 73.132812 492.488281 74.207031 493.234375 75.273438 C 493.234375 71.382812 493.234375 67.492188 493.234375 63.480469 C 492.492188 63.398438 491.746094 63.316406 490.980469 63.230469 C 490.480469 62.730469 490.480469 62.730469 490.414062 62.09375 C 490.414062 61.847656 490.414062 61.601562 490.417969 61.347656 C 490.414062 60.980469 490.414062 60.980469 490.414062 60.605469 C 490.480469 59.96875 490.480469 59.96875 490.980469 59.46875 C 491.691406 59.421875 492.378906 59.402344 493.09375 59.410156 C 493.40625 59.410156 493.40625 59.410156 493.726562 59.410156 C 494.171875 59.410156 494.613281 59.414062 495.058594 59.414062 C 495.738281 59.421875 496.417969 59.421875 497.097656 59.421875 C 497.527344 59.421875 497.957031 59.421875 498.386719 59.425781 C 498.589844 59.425781 498.792969 59.425781 499.003906 59.425781 C 500.441406 59.4375 500.441406 59.4375 501 59.71875 C 501.035156 60.203125 501.058594 60.691406 501.078125 61.175781 C 501.09375 61.445312 501.105469 61.71875 501.121094 61.996094 C 501 62.730469 501 62.730469 500.429688 63.203125 C 499.746094 63.480469 499.746094 63.480469 498.746094 63.480469 C 498.746094 63.683594 498.746094 63.882812 498.746094 64.089844 C 498.753906 66.011719 498.757812 67.933594 498.757812 69.855469 C 498.761719 70.84375 498.761719 71.832031 498.765625 72.820312 C 498.785156 80.363281 498.785156 80.363281 498.636719 83.96875 C 498.625 84.207031 498.617188 84.449219 498.605469 84.695312 C 498.527344 86.28125 498.527344 86.28125 498.246094 86.566406 C 497.277344 86.746094 496.316406 86.847656 495.332031 86.894531 C 495.0625 86.910156 495.0625 86.910156 494.789062 86.921875 C 493.136719 86.605469 492.191406 84.816406 491.277344 83.539062 C 491.121094 83.324219 490.964844 83.109375 490.804688 82.886719 C 490.496094 82.464844 490.191406 82.039062 489.886719 81.613281 C 489.398438 80.933594 488.90625 80.261719 488.414062 79.585938 C 487.898438 78.878906 487.390625 78.167969 486.882812 77.453125 C 486.777344 77.304688 486.675781 77.15625 486.566406 77.003906 C 486.273438 76.589844 485.980469 76.175781 485.691406 75.761719 C 484.652344 74.316406 483.550781 72.917969 482.464844 71.511719 C 482.425781 72.921875 482.390625 74.332031 482.355469 75.742188 C 482.34375 76.222656 482.332031 76.703125 482.320312 77.183594 C 482.300781 77.875 482.285156 78.5625 482.265625 79.253906 C 482.257812 79.574219 482.257812 79.574219 482.25 79.902344 C 482.242188 80.203125 482.242188 80.203125 482.234375 80.511719 C 482.230469 80.6875 482.226562 80.863281 482.222656 81.046875 C 482.210938 81.546875 482.210938 82.050781 482.210938 82.550781 C 482.410156 82.585938 482.605469 82.617188 482.804688 82.652344 C 483.1875 82.71875 483.1875 82.71875 483.574219 82.785156 C 483.953125 82.851562 483.953125 82.851562 484.339844 82.917969 C 484.96875 83.054688 484.96875 83.054688 485.21875 83.304688 C 485.25 83.800781 485.261719 84.296875 485.265625 84.792969 C 485.269531 85.066406 485.273438 85.335938 485.277344 85.617188 C 485.21875 86.316406 485.21875 86.316406 484.71875 86.816406 C 483.945312 86.847656 483.199219 86.84375 482.429688 86.820312 C 482.089844 86.8125 482.089844 86.8125 481.742188 86.800781 C 481.265625 86.789062 480.785156 86.777344 480.304688 86.761719 C 479.570312 86.738281 478.832031 86.71875 478.09375 86.703125 C 477.628906 86.6875 477.164062 86.675781 476.699219 86.664062 C 476.480469 86.65625 476.257812 86.652344 476.027344 86.644531 C 474.476562 86.59375 474.476562 86.59375 474.195312 86.316406 C 474.136719 85.714844 474.136719 85.714844 474.117188 84.964844 C 474.109375 84.722656 474.097656 84.476562 474.089844 84.222656 C 474.195312 83.554688 474.195312 83.554688 474.609375 83.121094 C 475.199219 82.800781 475.199219 82.800781 476.703125 82.300781 C 476.703125 76.253906 476.703125 70.210938 476.703125 63.984375 C 475.460938 63.488281 475.460938 63.488281 474.195312 62.980469 C 473.945312 62.730469 473.945312 62.730469 473.898438 61.929688 C 473.945312 61 474.136719 60.335938 474.445312 59.46875 Z M 474.445312 59.46875 "/>
<path style=" stroke:none;fill-rule:nonzero;fill:rgb(28.627451%,36.862745%,34.117647%);fill-opacity:1;" d="M 456.9375 60.933594 C 459.871094 63.105469 461.878906 66.683594 462.421875 70.257812 C 462.460938 70.46875 462.496094 70.683594 462.535156 70.902344 C 463.007812 74.464844 462.40625 78.535156 460.417969 81.546875 C 460.289062 81.753906 460.160156 81.957031 460.027344 82.167969 C 458.226562 84.757812 455.246094 86.152344 452.246094 86.878906 C 448.671875 87.503906 445.027344 87.222656 441.941406 85.207031 C 441.113281 84.617188 440.347656 84.027344 439.628906 83.304688 C 439.460938 83.144531 439.296875 82.984375 439.128906 82.820312 C 436.535156 79.988281 435.894531 76.128906 435.941406 72.410156 C 436.105469 68.867188 437.046875 65.507812 439.628906 62.980469 C 439.816406 62.78125 440.003906 62.578125 440.199219 62.375 C 444.367188 58.222656 452.003906 57.996094 456.9375 60.933594 Z M 446.390625 64.234375 C 446.011719 64.445312 446.011719 64.445312 445.625 64.660156 C 444.726562 65.363281 444.53125 65.882812 444.183594 66.964844 C 444.035156 67.414062 444.035156 67.414062 443.882812 67.871094 C 442.824219 71.652344 443.078125 76.269531 444.996094 79.742188 C 446.039062 81.207031 447.300781 82.058594 449.050781 82.441406 C 450.421875 82.609375 451.472656 82.5625 452.613281 81.703125 C 454.125 80.328125 455.042969 78.46875 455.207031 76.425781 C 455.335938 72.128906 455.253906 68.347656 452.277344 64.941406 C 450.671875 63.398438 448.273438 63.101562 446.390625 64.234375 Z M 446.390625 64.234375 "/>
<path style=" stroke:none;fill-rule:nonzero;fill:rgb(28.627451%,36.862745%,34.117647%);fill-opacity:1;" d="M 271.90625 59.40625 C 272.097656 59.40625 272.285156 59.410156 272.484375 59.410156 C 272.683594 59.410156 272.882812 59.410156 273.089844 59.410156 C 273.753906 59.410156 274.417969 59.414062 275.082031 59.417969 C 275.542969 59.417969 276 59.417969 276.460938 59.421875 C 277.671875 59.421875 278.886719 59.425781 280.097656 59.433594 C 281.332031 59.4375 282.566406 59.441406 283.804688 59.441406 C 286.230469 59.449219 288.65625 59.457031 291.082031 59.46875 C 291.757812 61.46875 291.867188 63.230469 291.847656 65.332031 C 291.847656 65.589844 291.847656 65.84375 291.84375 66.109375 C 291.839844 66.738281 291.835938 67.367188 291.832031 68 C 291.03125 68.425781 290.476562 68.574219 289.5625 68.578125 C 289.347656 68.582031 289.132812 68.585938 288.910156 68.589844 C 288.324219 68.5 288.324219 68.5 287.914062 68.214844 C 287.457031 67.589844 287.191406 66.945312 286.902344 66.226562 C 286.792969 65.960938 286.683594 65.691406 286.570312 65.417969 C 286.320312 64.734375 286.320312 64.734375 286.320312 64.234375 C 286.148438 64.238281 285.976562 64.242188 285.796875 64.242188 C 283.703125 64.261719 281.640625 64.144531 279.558594 63.984375 C 279.5625 64.308594 279.5625 64.632812 279.566406 64.964844 C 279.570312 65.394531 279.570312 65.828125 279.574219 66.257812 C 279.574219 66.46875 279.578125 66.683594 279.578125 66.902344 C 279.585938 68.132812 279.515625 69.292969 279.308594 70.507812 C 279.792969 70.480469 279.792969 70.480469 280.289062 70.453125 C 286.269531 70.128906 286.269531 70.128906 287.574219 70.257812 C 288.074219 70.757812 288.074219 70.757812 288.132812 71.238281 C 288.109375 72.441406 288.027344 73.589844 287.824219 74.773438 C 286.820312 75.25 286.023438 75.332031 284.914062 75.324219 C 284.601562 75.320312 284.289062 75.320312 283.96875 75.320312 C 283.484375 75.3125 283.484375 75.3125 282.988281 75.304688 C 282.65625 75.304688 282.328125 75.300781 281.988281 75.300781 C 281.179688 75.292969 280.367188 75.285156 279.558594 75.273438 C 279.558594 77.511719 279.558594 79.746094 279.558594 82.050781 C 281.871094 81.964844 284.1875 81.882812 286.570312 81.796875 C 287.316406 80.308594 288.058594 78.816406 288.828125 77.28125 C 289.984375 77.28125 291.140625 77.28125 292.332031 77.28125 C 292.875 78.367188 292.882812 79.066406 292.804688 80.230469 C 292.785156 80.507812 292.785156 80.507812 292.765625 80.792969 C 292.660156 82.164062 292.429688 83.476562 292.097656 84.808594 C 292.054688 84.980469 292.011719 85.15625 291.96875 85.332031 C 291.859375 85.75 291.722656 86.160156 291.582031 86.566406 C 290.816406 86.949219 290.015625 86.855469 289.171875 86.855469 C 288.878906 86.859375 288.878906 86.859375 288.578125 86.859375 C 287.925781 86.863281 287.273438 86.867188 286.621094 86.867188 C 286.167969 86.871094 285.714844 86.871094 285.261719 86.871094 C 284.3125 86.875 283.363281 86.875 282.414062 86.878906 C 281.199219 86.878906 279.980469 86.882812 278.761719 86.890625 C 277.828125 86.894531 276.894531 86.898438 275.960938 86.898438 C 275.511719 86.898438 275.0625 86.902344 274.613281 86.902344 C 273.984375 86.910156 273.359375 86.90625 272.730469 86.90625 C 272.542969 86.910156 272.359375 86.910156 272.167969 86.914062 C 271.425781 86.90625 270.914062 86.902344 270.292969 86.476562 C 269.902344 85.84375 270.023438 85.359375 270.117188 84.636719 C 270.148438 84.386719 270.175781 84.136719 270.207031 83.882812 C 270.25 83.59375 270.25 83.59375 270.289062 83.304688 C 271.949219 82.550781 271.949219 82.550781 272.792969 82.550781 C 272.8125 78.238281 272.765625 73.925781 272.667969 69.613281 C 272.65625 69.039062 272.644531 68.460938 272.632812 67.886719 C 272.605469 66.5 272.574219 65.117188 272.542969 63.734375 C 272.382812 63.699219 272.222656 63.664062 272.058594 63.632812 C 271.851562 63.585938 271.644531 63.542969 271.433594 63.496094 C 271.226562 63.453125 271.019531 63.410156 270.808594 63.363281 C 270.289062 63.230469 270.289062 63.230469 270.039062 62.980469 C 270.007812 62.484375 269.996094 61.988281 269.992188 61.488281 C 269.988281 61.21875 269.984375 60.949219 269.980469 60.667969 C 270.089844 59.359375 270.753906 59.410156 271.90625 59.40625 Z M 271.90625 59.40625 "/>
<path style=" stroke:none;fill-rule:nonzero;fill:rgb(28.627451%,36.862745%,34.117647%);fill-opacity:1;" d="M 357.804688 59.394531 C 357.992188 59.398438 358.179688 59.398438 358.371094 59.398438 C 358.667969 59.394531 358.667969 59.394531 358.96875 59.394531 C 359.625 59.390625 360.277344 59.390625 360.929688 59.390625 C 361.382812 59.390625 361.835938 59.390625 362.289062 59.386719 C 363.242188 59.386719 364.191406 59.386719 365.140625 59.386719 C 366.359375 59.390625 367.582031 59.386719 368.800781 59.378906 C 369.734375 59.375 370.671875 59.375 371.605469 59.375 C 372.058594 59.375 372.507812 59.375 372.957031 59.371094 C 373.585938 59.367188 374.210938 59.371094 374.839844 59.375 C 375.027344 59.371094 375.214844 59.371094 375.40625 59.367188 C 375.925781 59.375 375.925781 59.375 376.753906 59.46875 C 377.898438 61.1875 377.800781 63.492188 377.816406 65.503906 C 377.820312 65.78125 377.820312 65.78125 377.824219 66.066406 C 377.816406 67.011719 377.789062 67.441406 377.253906 68.25 C 376.492188 68.378906 376.492188 68.378906 375.59375 68.421875 C 375.296875 68.4375 374.996094 68.453125 374.691406 68.472656 C 374.347656 68.484375 374.347656 68.484375 373.996094 68.5 C 372.988281 67.117188 372.488281 65.875 371.742188 64.234375 C 369.59375 64.234375 367.445312 64.234375 365.230469 64.234375 C 365.230469 66.222656 365.230469 68.207031 365.230469 70.257812 C 366.082031 70.242188 366.082031 70.242188 366.957031 70.230469 C 367.507812 70.222656 368.058594 70.21875 368.613281 70.214844 C 368.996094 70.210938 369.378906 70.207031 369.761719 70.199219 C 370.316406 70.191406 370.867188 70.1875 371.417969 70.183594 C 371.589844 70.179688 371.761719 70.175781 371.9375 70.171875 C 372.65625 70.171875 373.132812 70.179688 373.734375 70.59375 C 374.140625 71.238281 374.027344 71.75 373.949219 72.5 C 373.925781 72.761719 373.902344 73.019531 373.875 73.289062 C 373.664062 74.480469 373.664062 74.480469 373.246094 75.023438 C 372.652344 75.175781 372.652344 75.175781 371.882812 75.210938 C 371.453125 75.234375 371.453125 75.234375 371.011719 75.253906 C 369.085938 75.300781 367.15625 75.289062 365.230469 75.273438 C 365.230469 77.511719 365.230469 79.746094 365.230469 82.050781 C 367.625 82.050781 370.023438 82.050781 372.492188 82.050781 C 372.660156 81.550781 372.824219 81.054688 372.996094 80.542969 C 373.285156 79.964844 373.589844 79.386719 373.902344 78.820312 C 374.140625 78.386719 374.140625 78.386719 374.382812 77.941406 C 374.503906 77.726562 374.625 77.507812 374.746094 77.28125 C 375.234375 77.269531 375.71875 77.257812 376.203125 77.25 C 376.472656 77.246094 376.746094 77.238281 377.023438 77.234375 C 377.753906 77.28125 377.753906 77.28125 378.503906 77.785156 C 378.753906 80.640625 378.3125 83.90625 377.253906 86.566406 C 375.085938 86.875 372.925781 86.859375 370.742188 86.859375 C 370.328125 86.859375 369.917969 86.859375 369.507812 86.863281 C 368.648438 86.863281 367.792969 86.863281 366.9375 86.863281 C 365.835938 86.863281 364.738281 86.867188 363.636719 86.871094 C 362.789062 86.875 361.941406 86.875 361.097656 86.875 C 360.691406 86.875 360.285156 86.875 359.878906 86.878906 C 359.3125 86.878906 358.75 86.878906 358.183594 86.878906 C 357.863281 86.878906 357.542969 86.878906 357.210938 86.878906 C 356.460938 86.816406 356.460938 86.816406 355.960938 86.316406 C 355.910156 85.605469 355.910156 85.605469 355.929688 84.777344 C 355.933594 84.503906 355.9375 84.226562 355.941406 83.945312 C 355.949219 83.734375 355.953125 83.523438 355.960938 83.304688 C 357.621094 82.550781 357.621094 82.550781 358.464844 82.550781 C 358.472656 80.394531 358.476562 78.238281 358.476562 76.078125 C 358.480469 75.078125 358.480469 74.074219 358.484375 73.074219 C 358.488281 72.105469 358.488281 71.136719 358.488281 70.167969 C 358.488281 69.800781 358.492188 69.433594 358.492188 69.066406 C 358.5 67.273438 358.503906 65.507812 358.214844 63.734375 C 357.472656 63.484375 356.726562 63.234375 355.960938 62.980469 C 355.667969 61.910156 355.738281 61.050781 355.960938 59.96875 C 356.585938 59.34375 356.953125 59.40625 357.804688 59.394531 Z M 357.804688 59.394531 "/>
<path style=" stroke:none;fill-rule:nonzero;fill:rgb(28.627451%,36.862745%,34.117647%);fill-opacity:1;" d="M 203.15625 59.46875 C 206.015625 59.449219 208.878906 59.4375 211.738281 59.429688 C 213.066406 59.425781 214.394531 59.417969 215.722656 59.410156 C 217.007812 59.402344 218.289062 59.398438 219.570312 59.394531 C 220.058594 59.394531 220.546875 59.390625 221.039062 59.386719 C 221.722656 59.382812 222.40625 59.382812 223.089844 59.382812 C 223.292969 59.378906 223.496094 59.375 223.707031 59.375 C 225.070312 59.382812 225.070312 59.382812 225.695312 59.792969 C 226.136719 60.527344 226.167969 61.34375 226.25 62.179688 C 226.269531 62.367188 226.289062 62.558594 226.308594 62.753906 C 226.769531 67.496094 226.769531 67.496094 225.949219 69.253906 C 223.199219 69.242188 223.199219 69.242188 222.351562 68.4375 C 222.203125 68.128906 222.070312 67.8125 221.941406 67.496094 C 221.671875 66.921875 221.398438 66.347656 221.128906 65.769531 C 220.898438 65.257812 220.667969 64.746094 220.441406 64.234375 C 219.53125 64.152344 218.621094 64.070312 217.683594 63.984375 C 217.683594 70.109375 217.683594 76.238281 217.683594 82.550781 C 218.429688 82.632812 219.171875 82.71875 219.9375 82.800781 C 220.3125 82.925781 220.3125 82.925781 220.691406 83.054688 C 220.964844 84.402344 220.847656 85.265625 220.441406 86.566406 C 219.128906 86.609375 217.820312 86.648438 216.511719 86.6875 C 216.066406 86.699219 215.621094 86.714844 215.175781 86.730469 C 210.324219 86.886719 210.324219 86.886719 208.414062 86.566406 C 207.914062 86.0625 207.914062 86.0625 207.847656 85.546875 C 207.851562 85.351562 207.851562 85.152344 207.851562 84.949219 C 207.851562 84.753906 207.851562 84.558594 207.847656 84.355469 C 207.914062 83.804688 207.914062 83.804688 208.414062 83.054688 C 209.324219 82.675781 209.929688 82.550781 210.921875 82.550781 C 210.921875 76.507812 210.921875 70.460938 210.921875 64.234375 C 210.011719 64.234375 209.101562 64.234375 208.164062 64.234375 C 208.039062 64.574219 207.910156 64.917969 207.78125 65.269531 C 207.605469 65.714844 207.433594 66.15625 207.257812 66.601562 C 207.175781 66.828125 207.089844 67.054688 207.007812 67.285156 C 206.761719 67.898438 206.523438 68.449219 206.160156 69 C 205.050781 69.410156 204.054688 69.246094 202.90625 69 C 202.253906 68.347656 202.339844 68.066406 202.335938 67.15625 C 202.335938 66.886719 202.335938 66.617188 202.335938 66.335938 C 202.335938 66.050781 202.339844 65.765625 202.339844 65.472656 C 202.339844 65.195312 202.335938 64.917969 202.335938 64.632812 C 202.339844 62.875 202.355469 61.070312 203.15625 59.46875 Z M 203.15625 59.46875 "/>
<path style=" stroke:none;fill-rule:nonzero;fill:rgb(28.627451%,36.862745%,34.117647%);fill-opacity:1;" d="M 171.410156 59.429688 C 171.730469 59.429688 171.730469 59.429688 172.058594 59.429688 C 172.769531 59.425781 173.480469 59.425781 174.191406 59.425781 C 174.683594 59.425781 175.175781 59.421875 175.667969 59.421875 C 176.699219 59.421875 177.734375 59.421875 178.765625 59.421875 C 180.09375 59.421875 181.417969 59.417969 182.746094 59.414062 C 183.761719 59.410156 184.777344 59.410156 185.792969 59.410156 C 186.285156 59.410156 186.773438 59.410156 187.261719 59.40625 C 187.945312 59.402344 188.625 59.40625 189.308594 59.40625 C 189.511719 59.40625 189.714844 59.402344 189.925781 59.402344 C 191.324219 59.410156 191.324219 59.410156 191.882812 59.96875 C 192.414062 61.472656 192.429688 63.066406 192.429688 64.640625 C 192.429688 64.90625 192.429688 64.90625 192.429688 65.175781 C 192.398438 68.488281 192.398438 68.488281 191.882812 69 C 191.335938 69.019531 190.785156 69.023438 190.238281 69.015625 C 189.789062 69.015625 189.789062 69.015625 189.328125 69.011719 C 189.097656 69.007812 188.867188 69.003906 188.625 69 C 188.289062 68.261719 187.957031 67.519531 187.625 66.773438 C 187.527344 66.5625 187.433594 66.351562 187.335938 66.136719 C 187.246094 65.933594 187.152344 65.730469 187.0625 65.523438 C 186.933594 65.242188 186.933594 65.242188 186.804688 64.957031 C 186.621094 64.484375 186.621094 64.484375 186.621094 63.984375 C 185.628906 63.984375 184.636719 63.984375 183.617188 63.984375 C 183.628906 64.707031 183.628906 64.707031 183.644531 65.445312 C 183.671875 67.046875 183.699219 68.644531 183.726562 70.246094 C 183.742188 71.214844 183.761719 72.183594 183.777344 73.15625 C 183.796875 74.089844 183.8125 75.027344 183.828125 75.964844 C 183.832031 76.320312 183.839844 76.679688 183.847656 77.035156 C 183.882812 78.898438 183.878906 80.703125 183.617188 82.550781 C 183.875 82.570312 183.875 82.570312 184.136719 82.589844 C 184.363281 82.605469 184.589844 82.625 184.820312 82.644531 C 185.046875 82.664062 185.269531 82.679688 185.5 82.699219 C 186.121094 82.800781 186.121094 82.800781 186.871094 83.304688 C 186.964844 83.875 186.964844 83.875 186.953125 84.542969 C 186.949219 84.761719 186.949219 84.980469 186.949219 85.207031 C 186.871094 85.8125 186.871094 85.8125 186.371094 86.566406 C 185.878906 86.675781 185.878906 86.675781 185.277344 86.695312 C 184.941406 86.707031 184.941406 86.707031 184.597656 86.722656 C 184.234375 86.730469 184.234375 86.730469 183.867188 86.738281 C 183.621094 86.746094 183.375 86.753906 183.121094 86.761719 C 182.367188 86.785156 181.613281 86.804688 180.859375 86.816406 C 180.640625 86.820312 180.421875 86.824219 180.195312 86.828125 C 175.917969 86.898438 175.917969 86.898438 174.097656 86.566406 C 173.628906 85.628906 173.804688 84.613281 173.941406 83.601562 C 174.464844 82.894531 174.773438 82.917969 175.625 82.769531 C 175.855469 82.726562 176.082031 82.683594 176.320312 82.640625 C 176.496094 82.613281 176.671875 82.582031 176.851562 82.550781 C 176.851562 82.359375 176.851562 82.167969 176.851562 81.96875 C 176.847656 80.144531 176.84375 78.320312 176.839844 76.5 C 176.839844 75.5625 176.835938 74.625 176.835938 73.6875 C 176.832031 72.78125 176.828125 71.875 176.828125 70.96875 C 176.828125 70.625 176.828125 70.28125 176.828125 69.9375 C 176.820312 68.015625 176.871094 66.140625 177.101562 64.234375 C 176.113281 64.234375 175.121094 64.234375 174.097656 64.234375 C 174 64.554688 174 64.554688 173.902344 64.878906 C 173.574219 65.800781 173.160156 66.609375 172.6875 67.464844 C 172.53125 67.753906 172.371094 68.042969 172.207031 68.339844 C 172.089844 68.558594 171.96875 68.777344 171.84375 69 C 170.769531 69 169.695312 69 168.585938 69 C 168.207031 68.242188 168.289062 67.453125 168.289062 66.617188 C 168.289062 66.429688 168.289062 66.246094 168.289062 66.050781 C 168.304688 64.601562 168.402344 63.167969 168.554688 61.726562 C 168.574219 61.527344 168.59375 61.332031 168.613281 61.128906 C 168.667969 60.65625 168.75 60.1875 168.835938 59.71875 C 169.644531 59.3125 170.523438 59.429688 171.410156 59.429688 Z M 171.410156 59.429688 "/>
<path style=" stroke:none;fill-rule:nonzero;fill:rgb(28.627451%,36.862745%,34.117647%);fill-opacity:1;" d="M 325.289062 59.429688 C 325.511719 59.429688 325.734375 59.425781 325.964844 59.425781 C 326.207031 59.425781 326.445312 59.425781 326.691406 59.425781 C 327.066406 59.421875 327.066406 59.421875 327.445312 59.421875 C 327.964844 59.421875 328.488281 59.421875 329.011719 59.421875 C 329.8125 59.421875 330.617188 59.414062 331.417969 59.410156 C 331.925781 59.410156 332.433594 59.410156 332.941406 59.410156 C 333.179688 59.40625 333.421875 59.40625 333.667969 59.402344 C 334.003906 59.40625 334.003906 59.40625 334.34375 59.40625 C 334.539062 59.40625 334.734375 59.40625 334.9375 59.40625 C 335.417969 59.46875 335.417969 59.46875 335.921875 59.96875 C 335.96875 60.675781 335.96875 60.675781 335.953125 61.503906 C 335.949219 61.78125 335.941406 62.054688 335.9375 62.339844 C 335.933594 62.550781 335.925781 62.761719 335.921875 62.980469 C 335.523438 63.105469 335.128906 63.230469 334.730469 63.355469 C 334.507812 63.425781 334.289062 63.496094 334.0625 63.566406 C 333.414062 63.734375 333.414062 63.734375 332.414062 63.734375 C 332.414062 69.777344 332.414062 75.820312 332.414062 82.050781 C 338.003906 82.492188 338.003906 82.492188 339.671875 80.566406 C 340.035156 79.816406 340.035156 79.816406 340.304688 79.023438 C 340.421875 78.761719 340.535156 78.5 340.65625 78.226562 C 340.9375 77.585938 341.1875 76.933594 341.429688 76.277344 C 342.507812 76.277344 343.582031 76.277344 344.6875 76.277344 C 345.964844 78.835938 344.480469 83.703125 343.6875 86.316406 C 342.546875 87.453125 338.023438 86.847656 336.429688 86.851562 C 335.917969 86.851562 335.40625 86.851562 334.894531 86.847656 C 334.125 86.847656 333.355469 86.847656 332.585938 86.851562 C 330.199219 86.851562 327.816406 86.828125 325.433594 86.722656 C 325.234375 86.714844 325.035156 86.707031 324.828125 86.699219 C 323.457031 86.625 323.457031 86.625 322.894531 86.0625 C 322.84375 85.410156 322.84375 85.410156 322.863281 84.652344 C 322.867188 84.402344 322.871094 84.148438 322.875 83.890625 C 322.882812 83.695312 322.886719 83.503906 322.894531 83.304688 C 324.554688 82.550781 324.554688 82.550781 325.398438 82.550781 C 325.398438 76.257812 325.398438 69.964844 325.398438 63.480469 C 324.285156 63.234375 324.285156 63.234375 323.144531 62.980469 C 322.894531 62.730469 322.894531 62.730469 322.859375 62.171875 C 322.863281 61.949219 322.863281 61.722656 322.863281 61.488281 C 322.863281 61.265625 322.863281 61.039062 322.859375 60.808594 C 322.894531 60.21875 322.894531 60.21875 323.144531 59.71875 C 323.863281 59.46875 324.535156 59.433594 325.289062 59.429688 Z M 325.289062 59.429688 "/>
<path style=" stroke:none;fill-rule:nonzero;fill:rgb(28.627451%,36.862745%,34.117647%);fill-opacity:1;" d="M 239.332031 59.425781 C 239.558594 59.425781 239.78125 59.421875 240.011719 59.417969 C 240.371094 59.417969 240.371094 59.417969 240.738281 59.417969 C 240.984375 59.414062 241.234375 59.414062 241.488281 59.410156 C 242.011719 59.410156 242.535156 59.40625 243.058594 59.40625 C 243.859375 59.40625 244.660156 59.398438 245.460938 59.386719 C 245.96875 59.386719 246.476562 59.386719 246.984375 59.382812 C 247.226562 59.382812 247.464844 59.378906 247.714844 59.375 C 248.046875 59.375 248.046875 59.375 248.390625 59.378906 C 248.585938 59.375 248.78125 59.375 248.984375 59.375 C 249.632812 59.492188 249.855469 59.699219 250.25 60.21875 C 250.339844 61.085938 250.226562 61.890625 250 62.730469 C 248.996094 63.765625 248 63.566406 246.492188 63.734375 C 246.492188 69.777344 246.492188 75.820312 246.492188 82.050781 C 248.476562 81.964844 250.460938 81.882812 252.503906 81.796875 C 253.800781 80.222656 253.800781 80.222656 254.582031 78.507812 C 255.203125 76.835938 255.203125 76.835938 255.761719 76.277344 C 256.261719 76.253906 256.761719 76.246094 257.261719 76.246094 C 257.539062 76.246094 257.8125 76.246094 258.09375 76.246094 C 258.765625 76.277344 258.765625 76.277344 259.015625 76.53125 C 259.257812 79.652344 259.1875 83.71875 257.765625 86.566406 C 255.746094 86.605469 253.730469 86.640625 251.714844 86.675781 C 250.777344 86.695312 249.839844 86.710938 248.902344 86.730469 C 240.132812 86.898438 240.132812 86.898438 237.472656 86.566406 C 237.039062 86.128906 237.160156 85.558594 237.144531 84.964844 C 237.136719 84.722656 237.125 84.476562 237.117188 84.222656 C 237.222656 83.554688 237.222656 83.554688 237.636719 83.105469 C 238.226562 82.800781 238.226562 82.800781 239.726562 82.550781 C 239.726562 76.257812 239.726562 69.964844 239.726562 63.480469 C 238.902344 63.316406 238.074219 63.152344 237.222656 62.980469 C 236.921875 61.746094 237.011719 60.902344 237.472656 59.71875 C 238.175781 59.484375 238.609375 59.433594 239.332031 59.425781 Z M 239.332031 59.425781 "/>
<path style=" stroke:none;fill-rule:nonzero;fill:rgb(28.627451%,36.862745%,34.117647%);fill-opacity:1;" d="M 112.726562 59.46875 C 114.421875 59.449219 116.121094 59.433594 117.820312 59.425781 C 118.398438 59.421875 118.976562 59.417969 119.554688 59.410156 C 120.386719 59.402344 121.214844 59.398438 122.046875 59.394531 C 122.304688 59.390625 122.5625 59.386719 122.832031 59.382812 C 123.070312 59.382812 123.3125 59.382812 123.558594 59.382812 C 123.773438 59.378906 123.984375 59.378906 124.203125 59.375 C 124.875 59.488281 125.09375 59.683594 125.5 60.21875 C 125.589844 60.761719 125.589844 60.761719 125.578125 61.347656 C 125.578125 61.542969 125.578125 61.738281 125.574219 61.9375 C 125.5 62.476562 125.5 62.476562 125 63.230469 C 124.492188 63.414062 124.492188 63.414062 123.902344 63.527344 C 123.710938 63.570312 123.515625 63.609375 123.320312 63.648438 C 122.746094 63.734375 122.746094 63.734375 121.742188 63.734375 C 121.742188 69.777344 121.742188 75.820312 121.742188 82.050781 C 124.84375 81.925781 124.84375 81.925781 128.003906 81.796875 C 128.914062 79.976562 129.824219 78.15625 130.761719 76.277344 C 131.753906 76.277344 132.746094 76.277344 133.765625 76.277344 C 134.269531 76.78125 134.269531 76.78125 134.3125 77.257812 C 134.304688 77.449219 134.296875 77.640625 134.289062 77.839844 C 134.273438 78.164062 134.273438 78.164062 134.261719 78.496094 C 134.246094 78.726562 134.234375 78.957031 134.222656 79.195312 C 134.207031 79.429688 134.195312 79.664062 134.183594 79.90625 C 133.839844 85.488281 133.839844 85.488281 132.765625 86.566406 C 132.160156 86.648438 131.582031 86.695312 130.972656 86.726562 C 130.792969 86.734375 130.613281 86.742188 130.429688 86.753906 C 128.574219 86.84375 126.71875 86.824219 124.859375 86.785156 C 124.503906 86.78125 124.152344 86.773438 123.796875 86.769531 C 122.882812 86.753906 121.964844 86.734375 121.050781 86.71875 C 120.109375 86.699219 119.167969 86.683594 118.226562 86.667969 C 116.394531 86.636719 114.558594 86.601562 112.726562 86.566406 C 112.28125 85.742188 112.179688 85.304688 112.316406 84.371094 C 112.347656 84.167969 112.375 83.96875 112.402344 83.761719 C 112.425781 83.613281 112.449219 83.460938 112.472656 83.304688 C 114.132812 82.550781 114.132812 82.550781 114.980469 82.550781 C 114.984375 80.246094 114.988281 77.941406 114.992188 75.636719 C 114.992188 74.5625 114.996094 73.492188 115 72.421875 C 115 71.390625 115.003906 70.355469 115.003906 69.324219 C 115.003906 68.929688 115.003906 68.535156 115.007812 68.140625 C 115.007812 67.589844 115.007812 67.039062 115.007812 66.484375 C 115.007812 66.015625 115.007812 66.015625 115.007812 65.535156 C 114.984375 64.878906 114.960938 64.34375 114.730469 63.734375 C 114.214844 63.457031 114.214844 63.457031 113.601562 63.308594 C 112.488281 62.992188 112.488281 62.992188 112.222656 62.730469 C 112.152344 61.507812 112.316406 60.609375 112.726562 59.46875 Z M 112.726562 59.46875 "/>
<path style=" stroke:none;fill-rule:nonzero;fill:rgb(28.627451%,36.862745%,34.117647%);fill-opacity:1;" d="M 145.789062 59.46875 C 147.386719 59.453125 148.984375 59.445312 150.578125 59.441406 C 151.121094 59.4375 151.667969 59.433594 152.210938 59.429688 C 152.988281 59.421875 153.769531 59.421875 154.546875 59.417969 C 154.792969 59.414062 155.035156 59.414062 155.289062 59.410156 C 155.625 59.410156 155.625 59.410156 155.972656 59.410156 C 156.171875 59.410156 156.371094 59.40625 156.574219 59.40625 C 157.0625 59.46875 157.0625 59.46875 157.566406 59.96875 C 157.621094 60.484375 157.621094 60.484375 157.613281 61.082031 C 157.609375 61.277344 157.609375 61.476562 157.605469 61.675781 C 157.566406 62.226562 157.566406 62.226562 157.3125 62.980469 C 156.488281 63.226562 155.660156 63.476562 154.808594 63.734375 C 154.808594 69.941406 154.808594 76.152344 154.808594 82.550781 C 155.554688 82.632812 156.296875 82.71875 157.0625 82.800781 C 157.3125 82.925781 157.3125 82.925781 157.566406 83.054688 C 157.585938 83.585938 157.597656 84.121094 157.613281 84.652344 C 157.625 85.097656 157.625 85.097656 157.636719 85.550781 C 157.613281 85.804688 157.589844 86.054688 157.566406 86.316406 C 156.753906 86.855469 156.542969 86.878906 155.609375 86.875 C 155.367188 86.875 155.125 86.875 154.875 86.875 C 154.617188 86.871094 154.355469 86.867188 154.089844 86.863281 C 153.824219 86.863281 153.558594 86.859375 153.285156 86.859375 C 150.699219 86.835938 148.121094 86.714844 145.539062 86.566406 C 145.289062 85.445312 145.109375 84.402344 145.539062 83.304688 C 146.425781 82.777344 147.015625 82.550781 148.046875 82.550781 C 148.101562 76.277344 147.9375 70.003906 147.796875 63.734375 C 147.636719 63.699219 147.476562 63.664062 147.3125 63.632812 C 147.105469 63.585938 146.898438 63.542969 146.683594 63.496094 C 146.476562 63.453125 146.269531 63.410156 146.058594 63.363281 C 145.539062 63.230469 145.539062 63.230469 145.289062 62.980469 C 145.257812 62.578125 145.246094 62.175781 145.242188 61.773438 C 145.238281 61.554688 145.234375 61.335938 145.230469 61.109375 C 145.292969 60.4375 145.476562 60.054688 145.789062 59.46875 Z M 145.789062 59.46875 "/>
<path style=" stroke:none;fill-rule:nonzero;fill:rgb(93.72549%,79.607843%,8.235294%);fill-opacity:1;" d="M 25.050781 15.054688 C 25.214844 15.054688 25.378906 15.054688 25.550781 15.054688 C 27.007812 16.535156 28.027344 18.144531 28.894531 20.019531 C 29.375 20.953125 29.945312 21.785156 30.546875 22.644531 C 31.523438 24.058594 32.234375 25.457031 32.875 27.046875 C 33.542969 28.644531 34.421875 30.074219 35.339844 31.539062 C 36.277344 33.03125 37.117188 34.539062 37.800781 36.167969 C 38.433594 37.671875 39.25 39.019531 40.128906 40.394531 C 40.523438 41.054688 40.824219 41.679688 41.082031 42.40625 C 35.839844 39.867188 32.433594 33.03125 30.085938 27.949219 C 29.75 27.222656 29.40625 26.503906 29.066406 25.785156 C 27.410156 22.277344 25.902344 18.851562 25.050781 15.054688 Z M 25.050781 15.054688 "/>
</g>
</svg>
